<svg width="1080" height="423" viewBox="0 0 1080 423" fill="none" xmlns="http://www.w3.org/2000/svg">
<path d="M286.312 270.432H306.672L316.908 283.599L326.977 295.328L345.954 319.118H323.602L310.545 303.074L303.851 293.558L286.312 270.432ZM347.669 253.17C347.669 265.526 345.327 276.038 340.642 284.706C335.995 293.373 329.651 299.994 321.61 304.568C313.606 309.104 304.607 311.373 294.611 311.373C284.542 311.373 275.505 309.086 267.501 304.512C259.498 299.939 253.172 293.318 248.525 284.65C243.877 275.983 241.553 265.489 241.553 253.17C241.553 240.814 243.877 230.302 248.525 221.634C253.172 212.966 259.498 206.364 267.501 201.827C275.505 197.254 284.542 194.967 294.611 194.967C304.607 194.967 313.606 197.254 321.61 201.827C329.651 206.364 335.995 212.966 340.642 221.634C345.327 230.302 347.669 240.814 347.669 253.17ZM323.381 253.17C323.381 245.166 322.182 238.416 319.785 232.92C317.424 227.425 314.086 223.257 309.771 220.417C305.455 217.577 300.402 216.157 294.611 216.157C288.82 216.157 283.767 217.577 279.452 220.417C275.136 223.257 271.78 227.425 269.382 232.92C267.022 238.416 265.842 245.166 265.842 253.17C265.842 261.174 267.022 267.923 269.382 273.419C271.78 278.915 275.136 283.083 279.452 285.923C283.767 288.763 288.82 290.183 294.611 290.183C300.402 290.183 305.455 288.763 309.771 285.923C314.086 283.083 317.424 278.915 319.785 273.419C322.182 267.923 323.381 261.174 323.381 253.17Z" fill="#FFCC19"/>
<path d="M425.7 273.64V224.843H449.269V309.824H426.641V294.388H425.756C423.838 299.367 420.647 303.369 416.184 306.394C411.758 309.418 406.355 310.93 399.974 310.93C394.293 310.93 389.296 309.639 384.98 307.057C380.665 304.476 377.29 300.806 374.856 296.048C372.458 291.289 371.241 285.591 371.204 278.952V224.843H394.773V274.747C394.81 279.763 396.156 283.728 398.812 286.642C401.467 289.556 405.027 291.013 409.49 291.013C412.33 291.013 414.985 290.367 417.457 289.076C419.928 287.749 421.92 285.794 423.432 283.212C424.981 280.63 425.737 277.44 425.7 273.64Z" fill="#FFCC19"/>
<path d="M512.75 311.483C504.156 311.483 496.724 309.658 490.453 306.006C484.22 302.318 479.407 297.191 476.013 290.626C472.62 284.023 470.923 276.37 470.923 267.665C470.923 258.887 472.62 251.215 476.013 244.65C479.407 238.047 484.22 232.92 490.453 229.269C496.724 225.581 504.156 223.736 512.75 223.736C521.344 223.736 528.757 225.581 534.991 229.269C541.261 232.92 546.093 238.047 549.486 244.65C552.88 251.215 554.576 258.887 554.576 267.665C554.576 276.37 552.88 284.023 549.486 290.626C546.093 297.191 541.261 302.318 534.991 306.006C528.757 309.658 521.344 311.483 512.75 311.483ZM512.86 293.226C516.77 293.226 520.034 292.119 522.653 289.906C525.272 287.656 527.245 284.595 528.573 280.722C529.938 276.849 530.62 272.442 530.62 267.499C530.62 262.557 529.938 258.149 528.573 254.276C527.245 250.404 525.272 247.342 522.653 245.092C520.034 242.842 516.77 241.717 512.86 241.717C508.914 241.717 505.594 242.842 502.902 245.092C500.246 247.342 498.236 250.404 496.871 254.276C495.543 258.149 494.879 262.557 494.879 267.499C494.879 272.442 495.543 276.849 496.871 280.722C498.236 284.595 500.246 287.656 502.902 289.906C505.594 292.119 508.914 293.226 512.86 293.226Z" fill="#FFCC19"/>
<path d="M621.335 224.843V242.547H570.158V224.843H621.335ZM581.777 204.483H605.346V283.71C605.346 285.886 605.678 287.583 606.341 288.8C607.005 289.98 607.927 290.81 609.108 291.289C610.325 291.769 611.727 292.009 613.313 292.009C614.419 292.009 615.526 291.917 616.632 291.732C617.739 291.511 618.587 291.345 619.177 291.234L622.884 308.773C621.704 309.141 620.044 309.566 617.905 310.045C615.765 310.561 613.165 310.875 610.104 310.986C604.423 311.207 599.444 310.451 595.166 308.717C590.924 306.984 587.623 304.291 585.262 300.64C582.902 296.988 581.74 292.378 581.777 286.808V204.483Z" fill="#FFCC19"/>
<path d="M680.735 311.483C671.994 311.483 664.469 309.713 658.162 306.172C651.892 302.594 647.06 297.541 643.667 291.013C640.273 284.447 638.577 276.683 638.577 267.721C638.577 258.979 640.273 251.307 643.667 244.705C647.06 238.103 651.836 232.957 657.996 229.269C664.193 225.581 671.459 223.736 679.795 223.736C685.401 223.736 690.62 224.64 695.452 226.447C700.321 228.218 704.562 230.892 708.177 234.47C711.828 238.047 714.668 242.547 716.697 247.969C718.726 253.354 719.74 259.661 719.74 266.891V273.364H647.982V258.758H697.554C697.554 255.364 696.817 252.358 695.341 249.74C693.866 247.121 691.819 245.074 689.2 243.598C686.618 242.086 683.612 241.33 680.182 241.33C676.604 241.33 673.432 242.16 670.666 243.82C667.936 245.443 665.797 247.637 664.248 250.404C662.699 253.133 661.906 256.176 661.869 259.532V273.419C661.869 277.624 662.644 281.257 664.193 284.318C665.779 287.38 668.01 289.74 670.887 291.4C673.764 293.06 677.176 293.89 681.122 293.89C683.741 293.89 686.139 293.521 688.315 292.783C690.491 292.046 692.354 290.939 693.903 289.464C695.452 287.988 696.632 286.181 697.444 284.042L719.242 285.48C718.136 290.718 715.867 295.291 712.437 299.201C709.044 303.074 704.654 306.098 699.269 308.275C693.921 310.414 687.743 311.483 680.735 311.483Z" fill="#FFCC19"/>
<path d="M717.963 196.516H744.797L770.634 245.314H771.74L797.578 196.516H824.411L783.082 269.768V309.824H759.292V269.768L717.963 196.516Z" fill="#FFCC19"/>
<path d="M851.086 311.428C845.664 311.428 840.832 310.488 836.59 308.607C832.349 306.689 828.992 303.867 826.521 300.142C824.087 296.379 822.869 291.695 822.869 286.089C822.869 281.368 823.736 277.403 825.47 274.194C827.203 270.985 829.564 268.403 832.552 266.448C835.539 264.493 838.932 263.018 842.731 262.022C846.567 261.026 850.588 260.325 854.793 259.92C859.735 259.403 863.719 258.924 866.743 258.481C869.768 258.002 871.962 257.301 873.327 256.379C874.692 255.457 875.374 254.092 875.374 252.285V251.953C875.374 248.449 874.267 245.738 872.054 243.82C869.878 241.902 866.78 240.943 862.76 240.943C858.518 240.943 855.143 241.883 852.635 243.764C850.127 245.609 848.467 247.932 847.656 250.735L825.857 248.965C826.964 243.801 829.14 239.338 832.386 235.576C835.631 231.777 839.818 228.863 844.945 226.835C850.108 224.769 856.084 223.736 862.87 223.736C867.591 223.736 872.11 224.29 876.425 225.396C880.777 226.503 884.632 228.218 887.988 230.541C891.382 232.865 894.056 235.853 896.011 239.504C897.965 243.119 898.943 247.453 898.943 252.506V309.824H876.591V298.039H875.927C874.562 300.695 872.737 303.037 870.45 305.066C868.163 307.057 865.415 308.625 862.206 309.768C858.997 310.875 855.291 311.428 851.086 311.428ZM857.836 295.162C861.303 295.162 864.364 294.48 867.02 293.115C869.675 291.714 871.759 289.833 873.272 287.472C874.784 285.111 875.54 282.437 875.54 279.45V270.432C874.802 270.911 873.788 271.354 872.497 271.759C871.243 272.128 869.823 272.479 868.237 272.811C866.651 273.106 865.065 273.382 863.479 273.64C861.893 273.862 860.454 274.065 859.163 274.249C856.397 274.655 853.981 275.3 851.916 276.185C849.85 277.071 848.246 278.269 847.102 279.782C845.959 281.257 845.387 283.101 845.387 285.314C845.387 288.523 846.549 290.976 848.873 292.673C851.233 294.332 854.221 295.162 857.836 295.162Z" fill="#FFCC19"/>
<path d="M923.46 309.824V224.843H946.31V239.67H947.195C948.744 234.396 951.344 230.412 954.996 227.72C958.647 224.99 962.852 223.626 967.61 223.626C968.791 223.626 970.063 223.699 971.428 223.847C972.792 223.995 973.991 224.197 975.024 224.456V245.369C973.917 245.037 972.387 244.742 970.432 244.484C968.477 244.225 966.688 244.096 965.065 244.096C961.598 244.096 958.5 244.852 955.77 246.365C953.078 247.84 950.939 249.906 949.353 252.561C947.804 255.217 947.029 258.278 947.029 261.745V309.824H923.46Z" fill="#FFCC19"/>
<path d="M1020.8 311.207C1014.35 311.207 1008.5 309.547 1003.26 306.228C998.061 302.871 993.93 297.947 990.869 291.455C987.844 284.927 986.332 276.923 986.332 267.444C986.332 257.707 987.9 249.611 991.035 243.156C994.17 236.664 998.338 231.814 1003.54 228.605C1008.78 225.359 1014.51 223.736 1020.74 223.736C1025.5 223.736 1029.47 224.548 1032.64 226.171C1035.85 227.757 1038.43 229.748 1040.39 232.146C1042.38 234.506 1043.89 236.83 1044.92 239.117H1045.64V196.516H1069.16V309.824H1045.92V296.214H1044.92C1043.82 298.574 1042.25 300.916 1040.22 303.24C1038.23 305.527 1035.63 307.426 1032.42 308.938C1029.25 310.451 1025.37 311.207 1020.8 311.207ZM1028.27 292.451C1032.07 292.451 1035.28 291.419 1037.9 289.353C1040.55 287.251 1042.58 284.318 1043.98 280.556C1045.42 276.794 1046.14 272.386 1046.14 267.333C1046.14 262.28 1045.44 257.891 1044.04 254.166C1042.64 250.44 1040.61 247.563 1037.95 245.535C1035.3 243.506 1032.07 242.492 1028.27 242.492C1024.4 242.492 1021.13 243.543 1018.48 245.645C1015.82 247.748 1013.81 250.662 1012.45 254.387C1011.08 258.112 1010.4 262.428 1010.4 267.333C1010.4 272.276 1011.08 276.647 1012.45 280.446C1013.85 284.208 1015.86 287.158 1018.48 289.298C1021.13 291.4 1024.4 292.451 1028.27 292.451Z" fill="#FFCC19"/>
<path d="M347.279 136.767V117.762H422.787V136.767H396.656V204.639H373.41V136.767H347.279Z" fill="white"/>
<path d="M455.419 167.988V204.639H432.003V117.762H454.571V151.868H455.249C456.72 147.711 459.166 144.473 462.588 142.154C466.01 139.807 470.125 138.633 474.932 138.633C479.542 138.633 483.544 139.679 486.937 141.772C490.359 143.865 493.003 146.749 494.87 150.426C496.765 154.102 497.698 158.316 497.67 163.067V204.639H474.254V167.988C474.282 164.764 473.476 162.233 471.836 160.395C470.224 158.556 467.919 157.637 464.921 157.637C463.026 157.637 461.358 158.062 459.916 158.91C458.502 159.73 457.399 160.918 456.607 162.473C455.843 164 455.447 165.839 455.419 167.988Z" fill="white"/>
<path d="M540.451 205.827C533.494 205.827 527.498 204.498 522.464 201.839C517.459 199.153 513.599 195.307 510.884 190.301C508.197 185.267 506.854 179.243 506.854 172.23C506.854 165.499 508.211 159.617 510.926 154.583C513.641 149.549 517.473 145.632 522.422 142.833C527.371 140.033 533.211 138.633 539.942 138.633C544.862 138.633 549.316 139.397 553.304 140.924C557.292 142.451 560.699 144.671 563.527 147.584C566.355 150.468 568.533 153.975 570.06 158.104C571.587 162.233 572.351 166.885 572.351 172.06V177.49H514.15V164.594H550.801C550.773 162.728 550.292 161.088 549.359 159.674C548.454 158.231 547.224 157.114 545.668 156.322C544.141 155.502 542.402 155.092 540.451 155.092C538.556 155.092 536.817 155.502 535.233 156.322C533.649 157.114 532.377 158.217 531.415 159.631C530.482 161.045 529.987 162.7 529.93 164.594V178.508C529.93 180.601 530.369 182.467 531.245 184.108C532.122 185.748 533.381 187.035 535.021 187.968C536.661 188.901 538.641 189.368 540.96 189.368C542.572 189.368 544.042 189.142 545.371 188.689C546.729 188.237 547.888 187.586 548.85 186.738C549.811 185.861 550.518 184.815 550.971 183.599H572.351C571.615 188.123 569.876 192.054 567.133 195.392C564.39 198.7 560.756 201.274 556.231 203.112C551.734 204.922 546.474 205.827 540.451 205.827Z" fill="white"/>
<path d="M683.1 148.244H598.279V120.206L454.697 27.0193L311.116 120.206V148.244H226.295L338.885 75.1678V30.0241H374.538V52.0271L454.697 0L683.1 148.244Z" fill="#FFCC19"/>
<path d="M12.9834 208.911V254.352C12.9834 304.545 53.6731 345.234 103.866 345.234C154.058 345.234 194.748 304.545 194.748 254.352V131.012L155.798 169.962V247.861C155.798 276.542 132.548 299.793 103.866 299.793C75.1837 299.793 51.933 276.542 51.933 247.861V208.911H12.9834Z" fill="white"/>
<path d="M233.698 422.213V376.056C211.299 370.292 194.748 349.958 194.748 325.76V247.861L155.798 234.877V332.251C155.798 378.036 189.655 415.913 233.698 422.213Z" fill="white"/>
<path fill-rule="evenodd" clip-rule="evenodd" d="M113.601 59.0536L109.636 33.8185L109.635 33.8184L107.837 22.3769C107.182 18.2048 102.78 15.7593 98.8915 17.4072L61.9254 33.0727C59.1828 34.2348 57.5837 37.1145 58.0457 40.0572L58.2666 41.4634L58.2677 41.4632L64.9162 72.5878L50.459 50.9778C27.7471 67.4995 12.9833 94.2859 12.9833 124.52V190.395L27.5525 188.729L0 200.549V215.403L207.731 126.282V118.855C207.731 116.395 207.645 113.955 207.477 111.537L175.774 125.139L193.637 110.272C187.567 71.7161 157.252 41.2121 118.79 34.8578L113.601 59.0536Z" fill="#FFCC19"/>
</svg>
